<svg viewBox="0 0 24 24" fill="none" xmlns="http://www.w3.org/2000/svg" id="File-Text--Streamline-Solar-Ar" height="24" width="24">
  <desc>
    File Text Streamline Icon: https://streamlinehq.com
  </desc>
  <path d="m15.3929 4.05365 -0.5017 0.55747 0.5017 -0.55747Zm3.9588 3.56289 -0.5017 0.55748 0.5017 -0.55748Zm2.3023 2.53756 -0.6851 0.3051 0.6851 -0.3051ZM3.17157 20.8284l0.53033 -0.5303 -0.53033 0.5303Zm17.65683 0 -0.5303 -0.5303 0.5303 0.5303ZM14 21.25h-4v1.5h4v-1.5ZM2.75 14v-4h-1.5v4h1.5Zm18.5 -0.4371V14h1.5v-0.4371h-1.5Zm-6.3588 -8.95178 3.9588 3.5629 1.0034 -1.11495 -3.9587 -3.56289 -1.0035 1.11494ZM22.75 13.5629c0 -1.6884 0.0151 -2.7574 -0.4109 -3.71393l-1.3702 0.61023c0.266 0.5973 0.2811 1.2828 0.2811 3.1037h1.5Zm-3.9 -5.38888c1.3534 1.21808 1.8529 1.68797 2.1189 2.28518l1.3702 -0.61023c-0.426 -0.95656 -1.2307 -1.66044 -2.4857 -2.7899L18.85 8.17402ZM10.0298 2.75c1.5818 0 2.1787 0.01158 2.7107 0.21573l0.5374 -1.40043c-0.8518 -0.32688 -1.7799 -0.3153 -3.2481 -0.3153v1.5Zm5.8649 0.74618c-1.086 -0.9774 -1.765 -1.60404 -2.6168 -1.93088l-0.5374 1.40043c0.5322 0.2042 0.981 0.59263 2.1507 1.64539l1.0035 -1.11494ZM10 21.25c-1.90682 0 -3.26149 -0.0016 -4.28915 -0.1398 -1.00609 -0.1352 -1.58574 -0.3889 -2.00895 -0.8121l-1.06066 1.0607c0.74837 0.7483 1.69731 1.0804 2.86974 1.2381 1.15084 0.1547 2.6246 0.1531 4.48902 0.1531v-1.5ZM1.25 14c0 1.8644 -0.00159 3.3382 0.15313 4.489 0.15763 1.1724 0.48975 2.1214 1.23811 2.8698l1.06066 -1.0607c-0.42321 -0.4232 -0.67688 -1.0029 -0.81214 -2.0089C2.75159 17.2615 2.75 15.9068 2.75 14h-1.5ZM14 22.75c1.8644 0 3.3382 0.0016 4.489 -0.1531 1.1724 -0.1577 2.1214 -0.4898 2.8698 -1.2381l-1.0607 -1.0607c-0.4232 0.4232 -1.0029 0.6769 -2.0089 0.8121 -1.0277 0.1382 -2.3824 0.1398 -4.2892 0.1398v1.5ZM21.25 14c0 1.9068 -0.0016 3.2615 -0.1398 4.2892 -0.1352 1.006 -0.3889 1.5857 -0.8121 2.0089l1.0607 1.0607c0.7483 -0.7484 1.0804 -1.6974 1.2381 -2.8698 0.1547 -1.1508 0.1531 -2.6246 0.1531 -4.489h-1.5Zm-18.5 -4c0 -1.90682 0.00159 -3.26149 0.13976 -4.28915 0.13526 -1.00609 0.38893 -1.58574 0.81214 -2.00895L2.64124 2.64124c-0.74836 0.74837 -1.08048 1.69731 -1.23811 2.86974C1.24841 6.66182 1.25 8.13558 1.25 10h1.5Zm7.2798 -8.75c-1.87442 0 -3.35538 -0.00158 -4.51093 0.15307 -1.17655 0.15747 -2.12868 0.48923 -2.87763 1.23817L3.7019 3.7019c0.42263 -0.42262 1.00406 -0.67665 2.01595 -0.81208C6.75075 2.75158 8.11311 2.75 10.0298 2.75v-1.5Z" fill="#000000" stroke-width="1.5"></path>
  <path d="M6 14.5h8" stroke="#000000" stroke-linecap="round" stroke-width="1.5"></path>
  <path d="M6 18h5.5" stroke="#000000" stroke-linecap="round" stroke-width="1.5"></path>
  <path d="M13 2.5V5c0 2.35702 0 3.53553 0.7322 4.26777C14.4645 10 15.643 10 18 10h4" stroke="#000000" stroke-width="1.5"></path>
</svg>