<svg xmlns="http://www.w3.org/2000/svg" viewBox="0 0 16 16" fill="none" id="File--Streamline-Majesticons" height="16" width="16">
  <desc>
    File Streamline Icon: https://streamlinehq.com
  </desc>
  <path fill="#333333" fill-rule="evenodd" d="M8 1.3333333333333333H4a2 2 0 0 0 -2 2v9.333333333333332a2 2 0 0 0 2 2h8a2 2 0 0 0 2 -2v-5.333333333333333h-4a2 2 0 0 1 -2 -2V1.3333333333333333zm6 4.666666666666666v-0.11466666666666665a2 2 0 0 0 -0.586 -1.4133333333333333l-2.5519999999999996 -2.5533333333333332A2 2 0 0 0 9.448 1.3333333333333333H9.333333333333332v4a0.6666666666666666 0.6666666666666666 0 0 0 0.6666666666666666 0.6666666666666666h4z" clip-rule="evenodd" stroke-width="0.6667"></path>
</svg>